<svg xmlns="http://www.w3.org/2000/svg" viewBox="0 0 512 512"><defs><style>.cls-1{fill:#27273d;}.cls-2{fill:#bbe7ff;}.cls-3{fill:#99e5ff;}.cls-4{fill:#f55b4b;}.cls-5{fill:#dd4236;}.cls-6{fill:#dcf4ff;}.cls-7{fill:#fff;}.cls-8{fill:#fc715a;}</style></defs><g id="BULINE"><circle class="cls-1" cx="256" cy="256" r="256"/></g><g id="Icons"><path class="cls-2" d="M411.71,100.59l-2.58,5.55-5.56,11.92v278a30.48,30.48,0,0,1-30.48,30.48H155.92a30.49,30.49,0,0,1-30.49-30.48v-278l-23.86-11.82a4.11,4.11,0,0,1-.18-7.27l18.23-10.25a25.58,25.58,0,0,1,12.49-3.26h270A10.64,10.64,0,0,1,411.71,100.59Z"/><path class="cls-3" d="M403.57,118.06l5.56-11.92H184.07a15,15,0,0,1-15-15V85.46H132.11a25.58,25.58,0,0,0-12.49,3.26L101.39,99a4.11,4.11,0,0,0,.18,7.27l23.86,11.82v278a30.49,30.49,0,0,0,30.49,30.48h43.59c-16.83,0-30.48-15.42-30.48-34.46v-261a13,13,0,0,1,13-13Z"/><path class="cls-4" d="M403.57,263.19V396.06a30.48,30.48,0,0,1-30.48,30.48H155.92a30.49,30.49,0,0,1-30.49-30.48V263.19Z"/><path class="cls-5" d="M199.51,426.54h-43.6a30.48,30.48,0,0,1-30.48-30.48V263.19H169V392.08C169,411.12,182.68,426.54,199.51,426.54Z"/><circle class="cls-6" cx="376.05" cy="181.29" r="14.99"/><circle class="cls-6" cx="376.05" cy="150.05" r="10.62"/><path class="cls-7" d="M125.43,139.8h52.31a10.37,10.37,0,0,1,10.37,10.37v0a10.37,10.37,0,0,1-10.37,10.37H125.43a0,0,0,0,1,0,0V139.8a0,0,0,0,1,0,0Z"/><path class="cls-7" d="M125.43,186h52.31a10.37,10.37,0,0,1,10.37,10.37v0a10.37,10.37,0,0,1-10.37,10.37H125.43a0,0,0,0,1,0,0V186a0,0,0,0,1,0,0Z"/><path class="cls-7" d="M125.43,232.15h52.31a10.37,10.37,0,0,1,10.37,10.37v0a10.37,10.37,0,0,1-10.37,10.37H125.43a0,0,0,0,1,0,0V232.15a0,0,0,0,1,0,0Z"/><path class="cls-7" d="M125.43,278.33h52.31a10.37,10.37,0,0,1,10.37,10.37v0a10.37,10.37,0,0,1-10.37,10.37H125.43a0,0,0,0,1,0,0V278.33A0,0,0,0,1,125.43,278.33Z"/><path class="cls-7" d="M125.43,324.51h52.31a10.37,10.37,0,0,1,10.37,10.37v0a10.37,10.37,0,0,1-10.37,10.37H125.43a0,0,0,0,1,0,0V324.51a0,0,0,0,1,0,0Z"/><path class="cls-7" d="M125.43,370.69h52.31a10.37,10.37,0,0,1,10.37,10.37v0a10.37,10.37,0,0,1-10.37,10.37H125.43a0,0,0,0,1,0,0V370.69a0,0,0,0,1,0,0Z"/><circle class="cls-8" cx="296.92" cy="311.36" r="14.77"/><circle class="cls-8" cx="214.28" cy="296.59" r="14.77"/><circle class="cls-8" cx="308.89" cy="393.98" r="14.77"/><circle class="cls-8" cx="231.92" cy="376.03" r="22.28"/><circle class="cls-8" cx="365.43" cy="348.41" r="22.28"/></g></svg>