<svg xmlns="http://www.w3.org/2000/svg" viewBox="0 0 64 64"><defs><style>.cls-1{fill:#0072ff;}</style></defs><title>Eye Focus</title><g id="Layer_2" data-name="Layer 2"><path class="cls-1" d="M54.41,16H9.59A5.59,5.59,0,0,0,4,21.58V54.42A5.59,5.59,0,0,0,9.59,60H54.41A5.59,5.59,0,0,0,60,54.42V21.58A5.59,5.59,0,0,0,54.41,16ZM8,25.25A5.24,5.24,0,0,1,13.23,20H22a2,2,0,0,1,2,2h0a2,2,0,0,1-2,2H13.23A1.24,1.24,0,0,0,12,25.25V30a2,2,0,0,1-4,0ZM24,54a2,2,0,0,1-2,2H13.23A5.24,5.24,0,0,1,8,50.77V46a2,2,0,0,1,4,0v4.76A1.24,1.24,0,0,0,13.23,52H22a2,2,0,0,1,2,2ZM18.87,39.25a2.14,2.14,0,0,1,0-2.47,16,16,0,0,1,26.17,0,2.14,2.14,0,0,1,0,2.47,16,16,0,0,1-26.17,0ZM56,50.77A5.24,5.24,0,0,1,50.75,56H42a2,2,0,0,1-2-2h0a2,2,0,0,1,2-2h8.76A1.24,1.24,0,0,0,52,50.77V46a2,2,0,0,1,4,0ZM56,30a2,2,0,1,1-4,0V25.25A1.24,1.24,0,0,0,50.75,24H42a2,2,0,0,1-2-2h0a2,2,0,0,1,2-2h8.76A5.24,5.24,0,0,1,56,25.25Z"/><circle class="cls-1" cx="31.95" cy="38.02" r="1.98"/></g></svg>