<?xml version="1.0" encoding="utf-8"?>
<!-- Generator: Adobe Illustrator 24.3.0, SVG Export Plug-In . SVG Version: 6.00 Build 0)  -->
<svg version="1.1" id="Layer_1" xmlns="http://www.w3.org/2000/svg" xmlns:xlink="http://www.w3.org/1999/xlink" x="0px" y="0px"
	 viewBox="0 0 100 100" enable-background="new 0 0 100 100" xml:space="preserve">
<g>
	<g>
		<g>
			<polygon fill="#6A4B35" points="41.743,56.501 39.591,70.584 47.669,70.584 47.669,56.501 			"/>
			<polygon fill="#59402D" points="46.356,56.501 41.866,56.501 39.591,70.584 46.356,70.584 			"/>
		</g>
		<path fill="#4DB061" d="M56.884,47.357c0.2-0.743-1.959-5.291-4.535-9.908l4.156,0.1c0,0-7.242-21.116-10.16-21.116
			c-2.92,0-15.59,20.499-15.59,20.499l6.641,0.159c-3.543,5.268-7.032,10.606-7.032,10.606s3.249,0.161,7.468,0.299
			c-3.688,5.47-7.468,11.254-7.468,11.254s26.079,1.302,26.52-0.34c0.212-0.789-2.24-5.877-5.028-10.782
			C54.735,48.031,56.763,47.804,56.884,47.357z"/>
		<path fill="#1FA551" d="M46.356,59.731V16.469c-3.227,0.771-15.4,20.462-15.4,20.462l6.64,0.159
			c-3.542,5.268-7.031,10.606-7.031,10.606s3.249,0.161,7.469,0.299c-3.687,5.47-7.469,11.254-7.469,11.254
			S38.999,59.67,46.356,59.731z"/>
	</g>
	<g>
		<g>
			<polygon fill="#6A4B35" points="57.034,59.209 54.882,73.294 62.96,73.294 62.96,59.209 			"/>
			<polygon fill="#59402D" points="61.647,59.209 57.157,59.209 54.882,73.294 61.647,73.294 			"/>
		</g>
		<path fill="#4DB061" d="M72.175,50.066c0.199-0.743-1.96-5.291-4.536-9.909l4.156,0.1c0,0-7.242-21.115-10.161-21.115
			c-2.92,0-15.589,20.498-15.589,20.498l6.64,0.159c-3.543,5.269-7.031,10.606-7.031,10.606s3.249,0.162,7.469,0.3
			c-3.688,5.469-7.469,11.254-7.469,11.254s26.079,1.301,26.521-0.34c0.212-0.79-2.241-5.877-5.028-10.782
			C70.026,50.741,72.054,50.513,72.175,50.066z"/>
		<path fill="#1FA551" d="M61.647,62.441V19.179c-3.227,0.771-15.4,20.461-15.4,20.461l6.64,0.159
			c-3.543,5.269-7.032,10.606-7.032,10.606s3.249,0.162,7.469,0.3c-3.688,5.469-7.469,11.254-7.469,11.254
			S54.29,62.378,61.647,62.441z"/>
	</g>
	<g>
		<g>
			<polygon fill="#6A4B35" points="72.24,68.962 70.087,83.047 78.166,83.047 78.166,68.962 			"/>
			<polygon fill="#59402D" points="76.852,68.962 72.362,68.962 70.087,83.047 76.852,83.047 			"/>
		</g>
		<path fill="#4DB061" d="M87.38,59.82c0.2-0.743-1.959-5.291-4.535-9.908l4.156,0.1c0,0-7.241-21.116-10.16-21.116
			c-2.92,0-15.59,20.498-15.59,20.498l6.641,0.16c-3.543,5.268-7.032,10.605-7.032,10.605s3.249,0.162,7.468,0.3
			c-3.688,5.469-7.468,11.254-7.468,11.254s26.079,1.302,26.52-0.34c0.212-0.789-2.24-5.877-5.027-10.782
			C85.231,60.494,87.259,60.267,87.38,59.82z"/>
		<path fill="#1FA551" d="M76.852,72.194V28.932c-3.228,0.771-15.4,20.461-15.4,20.461l6.64,0.16
			c-3.543,5.268-7.032,10.605-7.032,10.605s3.249,0.162,7.469,0.3c-3.688,5.469-7.469,11.254-7.469,11.254
			S69.495,72.133,76.852,72.194z"/>
	</g>
	<g>
		<path fill="#6A4B35" d="M73.98,52.214l-21.214-21.76l0,0l-0.182-0.179l0,0l-0.182,0.179l-21.214,21.76
			c-1.069,3.94,4.069,2.13,4.069,2.13l17.327-18.597l17.328,18.597C69.912,54.344,75.049,56.154,73.98,52.214z"/>
		<polygon fill="#E47908" points="52.811,33.226 45.638,40.705 32.856,54.031 32.856,83.568 52.811,83.568 72.766,83.568 
			72.766,54.031 		"/>
		<g>
			<polygon fill="#6A4B35" points="58.73,40.149 52.798,34.116 46.827,40.149 			"/>
			<polygon fill="#6A4B35" points="67.565,49.622 63.731,45.518 41.859,45.518 37.924,49.622 			"/>
			<polygon fill="#6A4B35" points="63.264,44.971 59.263,40.867 46.094,40.989 42.458,44.971 			"/>
			<rect x="33.593" y="64.446" fill="#6A4B35" width="38.41" height="4.262"/>
			<g>
				<rect x="33.493" y="73.971" fill="#6A4B35" width="38.41" height="3.967"/>
			</g>
			<rect x="33.493" y="69.216" fill="#6A4B35" width="38.41" height="4.221"/>
			<rect x="33.593" y="55.008" fill="#6A4B35" width="38.41" height="4.261"/>
			<polygon fill="#6A4B35" points="72.003,54.344 67.915,50.083 37.508,50.083 33.593,54.344 			"/>
			<rect x="33.493" y="59.777" fill="#6A4B35" width="38.41" height="4.221"/>
			<polygon fill="#6A4B35" points="33.493,78.451 33.493,82.419 52.698,82.419 71.903,82.419 71.903,78.451 			"/>
		</g>
		<line fill="#E47908" x1="60.14" y1="40.867" x2="45.378" y2="40.867"/>
		<rect x="46.827" y="68.708" fill="#E47908" width="10.836" height="14.859"/>
		<rect x="39.458" y="54.344" fill="#E47908" width="25.607" height="10.103"/>
		<rect x="51.757" y="54.344" fill="#6A4B35" width="1.008" height="10.103"/>
	</g>
	<g>
		<g>
			<polygon fill="#6A4B35" points="23.988,68.962 21.835,83.047 29.914,83.047 29.914,68.962 			"/>
			<polygon fill="#59402D" points="28.6,68.962 24.11,68.962 21.835,83.047 28.6,83.047 			"/>
		</g>
		<path fill="#4DB061" d="M39.128,59.82c0.199-0.743-1.96-5.291-4.536-9.908l4.156,0.1c0,0-7.241-21.116-10.16-21.116
			c-2.921,0-15.589,20.498-15.589,20.498l6.64,0.16c-3.543,5.268-7.032,10.605-7.032,10.605s3.249,0.162,7.469,0.3
			c-3.688,5.469-7.469,11.254-7.469,11.254s26.079,1.302,26.521-0.34c0.212-0.789-2.241-5.877-5.028-10.782
			C36.979,60.494,39.007,60.267,39.128,59.82z"/>
		<path fill="#1FA551" d="M28.6,72.194V28.932c-3.228,0.771-15.4,20.461-15.4,20.461l6.64,0.16
			c-3.543,5.268-7.031,10.605-7.031,10.605s3.249,0.162,7.468,0.3c-3.688,5.469-7.468,11.254-7.468,11.254
			S21.243,72.133,28.6,72.194z"/>
	</g>
</g>
</svg>
