<?xml version="1.0" encoding="UTF-8"?>
<svg version="1.1" xmlns="http://www.w3.org/2000/svg" width="512" height="512">
<path d="M0 0 C4.12279192 0.00914431 8.24551904 -0.00496515 12.36829758 -0.01591969 C20.42114874 -0.03361055 28.47384991 -0.02990731 36.5267067 -0.01826912 C43.07743169 -0.00919766 49.62811496 -0.00802676 56.17884445 -0.01236439 C57.11483144 -0.01297732 58.05081843 -0.01359025 59.01516867 -0.01422176 C60.9172179 -0.01550079 62.81926713 -0.01679765 64.72131634 -0.01811212 C82.51389757 -0.02949029 100.30639608 -0.01644775 118.09896374 0.00508934 C133.3317681 0.0229578 148.56445049 0.01985291 163.79725266 0.0014143 C181.53063333 -0.02004141 199.26394168 -0.02839191 216.99733353 -0.01613665 C218.89198429 -0.01486259 220.78663507 -0.0136051 222.68128586 -0.01236439 C223.61324075 -0.01174729 224.54519565 -0.01113018 225.5053916 -0.01049438 C232.04044057 -0.00705555 238.57544327 -0.01283799 245.11048508 -0.0222826 C253.08571738 -0.03355638 261.06079241 -0.03035036 269.03600693 -0.00915962 C273.09708423 0.00127898 277.15790031 0.00559719 281.21897507 -0.00775623 C313.99068304 -0.10631518 342.46802042 5.11435943 366.68397141 28.71430492 C391.45121616 54.0452423 396.06487917 83.0568653 395.95296383 117.09283352 C395.94381952 121.21562544 395.95792898 125.33835256 395.96888351 129.4611311 C395.98657438 137.51398226 395.98287114 145.56668343 395.97123295 153.61954021 C395.96216149 160.17026521 395.96099059 166.72094848 395.96532822 173.27167797 C395.96594115 174.20766496 395.96655408 175.14365195 395.96718559 176.10800219 C395.96846462 178.01005142 395.96976148 179.91210065 395.97107595 181.81414986 C395.98245411 199.60673109 395.96941158 217.39922959 395.94787449 235.19179726 C395.93000603 250.42460162 395.93311092 265.65728401 395.95154953 280.89008617 C395.97300524 298.62346685 395.98135574 316.3567752 395.96910048 334.09016705 C395.96782642 335.98481781 395.96656893 337.87946859 395.96532822 339.77411938 C395.96471111 340.70607427 395.96409401 341.63802917 395.96345821 342.59822512 C395.96001938 349.13327409 395.96580182 355.66827679 395.97524643 362.2033186 C395.98652021 370.17855089 395.98331419 378.15362593 395.96212345 386.12884045 C395.95168485 390.18991775 395.94736664 394.25073383 395.96072006 398.31180859 C396.05927901 431.08351655 390.83860439 459.56085394 367.23865891 483.77680492 C341.90772153 508.54404968 312.89609853 513.15771269 278.86013031 513.04579735 C274.73733839 513.03665304 270.61461127 513.0507625 266.49183273 513.06171703 C258.43898157 513.0794079 250.3862804 513.07570466 242.33342361 513.06406647 C235.78269862 513.05499501 229.23201535 513.05382411 222.68128586 513.05816174 C221.74529887 513.05877467 220.80931188 513.0593876 219.84496164 513.06001911 C217.94291241 513.06129814 216.04086318 513.062595 214.13881397 513.06390947 C196.34623274 513.07528763 178.55373423 513.0622451 160.76116657 513.04070801 C145.52836221 513.02283955 130.29567982 513.02594444 115.06287766 513.04438305 C97.32949698 513.06583876 79.59618863 513.07418926 61.86279678 513.06193399 C59.96814602 513.06065994 58.07349524 513.05940245 56.17884445 513.05816174 C55.24688956 513.05754463 54.31493466 513.05692753 53.35473871 513.05629173 C46.81968974 513.0528529 40.28468704 513.05863534 33.74964523 513.06807995 C25.77441293 513.07935373 17.7993379 513.07614771 9.82412338 513.05495697 C5.76304608 513.04451837 1.70223 513.04020016 -2.35884476 513.05355358 C-35.13055273 513.15211253 -63.60789011 507.93143791 -87.82384109 484.33149242 C-112.59108585 459.00055505 -117.20474886 429.98893205 -117.09283352 395.95296383 C-117.08368921 391.83017191 -117.09779867 387.70744478 -117.1087532 383.58466625 C-117.12644407 375.53181509 -117.12274083 367.47911392 -117.11110264 359.42625713 C-117.10203118 352.87553214 -117.10086028 346.32484887 -117.10519791 339.77411938 C-117.10581084 338.83813239 -117.10642377 337.9021454 -117.10705528 336.93779516 C-117.10833431 335.03574593 -117.10963117 333.1336967 -117.11094564 331.23164749 C-117.1223238 313.43906626 -117.10928127 295.64656775 -117.08774418 277.85400009 C-117.06987572 262.62119573 -117.07298061 247.38851334 -117.09141922 232.15571117 C-117.11287493 214.4223305 -117.12122543 196.68902215 -117.10897017 178.9556303 C-117.10769611 177.06097954 -117.10643862 175.16632876 -117.10519791 173.27167797 C-117.10427225 171.87374563 -117.10427225 171.87374563 -117.1033279 170.44757223 C-117.09988907 163.91252326 -117.10567151 157.37752056 -117.11511612 150.84247875 C-117.1263899 142.86724645 -117.12318388 134.89217142 -117.10199314 126.9169569 C-117.09155454 122.8558796 -117.08723633 118.79506352 -117.10058975 114.73398876 C-117.1991487 81.96228079 -111.97847408 53.48494341 -88.37852859 29.26899242 C-63.04759122 4.50174767 -34.03596822 -0.11191534 0 0 Z " fill="#0079FF" transform="translate(116.5699348449707,-0.5228986740112305)"/>
<path d="M0 0 C10.8023864 5.72447629 17.15433111 16.21952004 23.95507812 25.97558594 C26.79465191 30.00610469 29.73766292 33.95903061 32.67578125 37.91796875 C37.82765121 44.88469386 42.92767964 51.88653457 47.97460938 58.9296875 C52.45142 65.16036152 57.05875077 71.29089317 61.67578125 77.41796875 C61.67942688 76.7386026 61.68307251 76.05923645 61.68682861 75.35928345 C61.72881827 68.25301582 61.79827915 61.14738416 61.88330078 54.04150391 C61.9114302 51.39378233 61.93268441 48.74597803 61.94677734 46.09814453 C61.96831721 42.27984511 62.01502772 38.46253195 62.06640625 34.64453125 C62.06763489 33.47121246 62.06886353 32.29789368 62.07012939 31.08901978 C62.25309243 20.69311239 64.68044335 12.72247323 71.8828125 5.10546875 C78.31336891 -0.94681964 84.95248482 -3.20154684 93.66796875 -3.0234375 C102.43969627 -1.73615801 110.32921706 3.45823247 115.67578125 10.41796875 C120.32498572 17.80697555 120.24567785 25.17261724 120.19335938 33.68334961 C120.19878897 35.10686455 120.20591631 36.53037387 120.21459961 37.95387268 C120.23273838 41.79700565 120.22580452 45.63970609 120.21308327 49.48284602 C120.2029043 53.51938273 120.21236265 57.55588421 120.21862793 61.59242249 C120.22589099 68.37019446 120.21635288 75.14779171 120.19726562 81.92553711 C120.17550816 89.74129279 120.18254531 97.55663084 120.20457125 105.37237638 C120.22277415 112.10305551 120.22525951 118.83360955 120.21481657 125.56430537 C120.20860727 129.57532338 120.20767462 133.58614567 120.22096252 137.5971508 C120.23259169 141.37060467 120.22436806 145.14352487 120.2013855 148.91692162 C120.19364817 150.94740457 120.20539435 152.97793312 120.21789551 155.00839233 C120.13201513 164.36755131 118.85716531 172.13488799 112.48828125 179.29296875 C105.14098754 185.83592715 98.10322251 187.13929865 88.34375 186.875 C83.04845308 186.21520262 79.03773136 184.43167974 74.67578125 181.41796875 C73.90492188 180.88945312 73.1340625 180.3609375 72.33984375 179.81640625 C68.53673381 176.39249202 65.69209282 172.41051676 62.67578125 168.29296875 C62.01715088 167.40424072 61.35852051 166.5155127 60.67993164 165.59985352 C55.91368845 159.15187857 51.20637346 152.66093116 46.52807617 146.14892578 C42.02989926 139.88825695 37.4643623 133.67905218 32.87084961 127.48803711 C27.71873832 120.52679941 22.69705209 113.47380139 17.67578125 106.41796875 C17.67213562 107.09511429 17.66848999 107.77225983 17.66473389 108.46992493 C17.62270777 115.56012479 17.5532221 122.64968941 17.46826172 129.73950195 C17.44015172 132.38038763 17.41888797 135.02135589 17.40478516 137.66235352 C17.38321814 141.47324599 17.33649423 145.28315595 17.28515625 149.09375 C17.28331329 150.84598625 17.28331329 150.84598625 17.28143311 152.63362122 C17.09792802 163.05962453 14.95069638 172.04478215 7.61328125 179.76171875 C0.70631259 185.66606293 -6.81961705 186.85037155 -15.6796875 186.75 C-24.47581243 185.94863814 -29.93419692 181.42841094 -35.6328125 174.9921875 C-40.84177588 167.06445801 -40.76168787 159.45919128 -40.72827148 150.25024414 C-40.73398185 148.82525601 -40.74094869 147.40027245 -40.74906921 145.97529602 C-40.76694205 142.12398209 -40.76584343 138.27289672 -40.76012683 134.42155385 C-40.7570265 131.1985135 -40.76313677 127.97551652 -40.76916558 124.75248235 C-40.78318984 117.14525394 -40.78166699 109.53813788 -40.77026367 101.9309082 C-40.75878375 94.09982986 -40.77286064 86.26909404 -40.79966015 78.43806082 C-40.82185667 71.69808745 -40.82844567 64.95822128 -40.82258373 58.21821398 C-40.81922247 54.19993312 -40.82157366 50.1818718 -40.83883476 46.1636219 C-40.85436521 42.38364019 -40.85028157 38.60416378 -40.83152962 34.82420158 C-40.82786054 33.44278938 -40.83090288 32.06133923 -40.84141541 30.67996216 C-40.91640761 20.00488329 -39.3661372 11.95742003 -32.0390625 3.921875 C-22.98780403 -4.01601682 -10.77061331 -4.46363465 0 0 Z " fill="#0184FF" transform="translate(139.32421875,163.58203125)"/>
<path d="M0 0 C1.30756256 -0.00004028 2.61512512 -0.00008057 3.96231079 -0.00012207 C6.71414369 0.00151936 9.46515035 0.01999032 12.21679688 0.05175781 C15.70518137 0.09135355 19.19248468 0.09580455 22.68105125 0.08829498 C26.05832689 0.08444671 29.43527708 0.10536423 32.8125 0.125 C34.66154434 0.12530212 34.66154434 0.12530212 36.54794312 0.12561035 C56.61092914 0.39506097 75.90339501 7.01681047 90.53125 20.95703125 C97.14454783 27.91026495 101.58557777 35.67541031 105.0390625 44.59375 C105.52052734 45.81771484 105.52052734 45.81771484 106.01171875 47.06640625 C111.20841455 62.70483501 108.45427979 79.85556223 101.6875 94.5234375 C92.85418288 110.36419054 77.7284455 121.83153042 60.42504883 126.95068359 C51.04455047 129.47889731 42.03427789 129.84925835 32.3515625 129.71875 C31.06572266 129.70972656 29.77988281 129.70070313 28.45507812 129.69140625 C25.31620518 129.6680689 22.17773774 129.63533033 19.0390625 129.59375 C19.0704834 130.68204102 19.1019043 131.77033203 19.13427734 132.89160156 C19.24404064 136.98406595 19.31217445 141.07640445 19.36865234 145.16992188 C19.3985647 146.93121316 19.43931116 148.6923589 19.49169922 150.453125 C19.83612742 162.33927465 19.46126001 172.03592 11.35742188 181.57275391 C6.01979832 186.96403061 -2.11760858 189.70205443 -9.5859375 190.09375 C-17.29150542 189.66795213 -23.6054471 185.80077007 -29.16796875 180.66015625 C-34.62702619 174.36856281 -37.0697271 167.08037353 -37.11483765 158.87854004 C-37.12343811 157.71240173 -37.13203857 156.54626343 -37.14089966 155.3447876 C-37.14515961 154.06891785 -37.14941956 152.7930481 -37.15380859 151.47851562 C-37.16171454 150.11810092 -37.16998379 148.75768829 -37.17858887 147.39727783 C-37.20476292 142.93153879 -37.22011684 138.46579062 -37.234375 134 C-37.23973751 132.45867406 -37.24511503 130.91734817 -37.25050735 129.37602234 C-37.27213372 122.95928 -37.29086609 116.54254012 -37.30212975 110.12577057 C-37.31834007 100.95326111 -37.35144915 91.78117717 -37.40853059 82.60882807 C-37.44735803 76.14746694 -37.46677778 69.68621897 -37.47205031 63.22474432 C-37.47568774 59.37219533 -37.48753487 55.52010064 -37.52015305 51.66767883 C-37.55045862 48.03626816 -37.55646689 44.40558125 -37.54476929 40.77407074 C-37.54444696 38.824958 -37.5687647 36.87588841 -37.59414673 34.92694092 C-37.52536217 25.09774421 -35.42997573 16.22703415 -28.8359375 8.65625 C-20.30328136 1.13629048 -11.00568239 -0.14590001 0 0 Z " fill="#0273FF" transform="translate(304.9609375,161.40625)"/>
<path d="M0 0 C10.8023864 5.72447629 17.15433111 16.21952004 23.95507812 25.97558594 C26.79465191 30.00610469 29.73766292 33.95903061 32.67578125 37.91796875 C37.82765121 44.88469386 42.92767964 51.88653457 47.97460938 58.9296875 C52.45142 65.16036152 57.05875077 71.29089317 61.67578125 77.41796875 C61.67942688 76.7386026 61.68307251 76.05923645 61.68682861 75.35928345 C61.72881827 68.25301582 61.79827915 61.14738416 61.88330078 54.04150391 C61.9114302 51.39378233 61.93268441 48.74597803 61.94677734 46.09814453 C61.96831721 42.27984511 62.01502772 38.46253195 62.06640625 34.64453125 C62.06763489 33.47121246 62.06886353 32.29789368 62.07012939 31.08901978 C62.25309243 20.69311239 64.68044335 12.72247323 71.8828125 5.10546875 C78.31336891 -0.94681964 84.95248482 -3.20154684 93.66796875 -3.0234375 C102.43969627 -1.73615801 110.32921706 3.45823247 115.67578125 10.41796875 C120.32498572 17.80697555 120.24567785 25.17261724 120.19335938 33.68334961 C120.19878897 35.10686455 120.20591631 36.53037387 120.21459961 37.95387268 C120.23273838 41.79700565 120.22580452 45.63970609 120.21308327 49.48284602 C120.2029043 53.51938273 120.21236265 57.55588421 120.21862793 61.59242249 C120.22589099 68.37019446 120.21635288 75.14779171 120.19726562 81.92553711 C120.17550816 89.74129279 120.18254531 97.55663084 120.20457125 105.37237638 C120.22277415 112.10305551 120.22525951 118.83360955 120.21481657 125.56430537 C120.20860727 129.57532338 120.20767462 133.58614567 120.22096252 137.5971508 C120.23259169 141.37060467 120.22436806 145.14352487 120.2013855 148.91692162 C120.19364817 150.94740457 120.20539435 152.97793312 120.21789551 155.00839233 C120.13201513 164.36755131 118.85716531 172.13488799 112.48828125 179.29296875 C105.14098754 185.83592715 98.10322251 187.13929865 88.34375 186.875 C83.04845308 186.21520262 79.03773136 184.43167974 74.67578125 181.41796875 C73.90492188 180.88945312 73.1340625 180.3609375 72.33984375 179.81640625 C68.53673381 176.39249202 65.69209282 172.41051676 62.67578125 168.29296875 C62.01715088 167.40424072 61.35852051 166.5155127 60.67993164 165.59985352 C55.91368845 159.15187857 51.20637346 152.66093116 46.52807617 146.14892578 C42.02989926 139.88825695 37.4643623 133.67905218 32.87084961 127.48803711 C27.71873832 120.52679941 22.69705209 113.47380139 17.67578125 106.41796875 C17.67213562 107.09511429 17.66848999 107.77225983 17.66473389 108.46992493 C17.62270777 115.56012479 17.5532221 122.64968941 17.46826172 129.73950195 C17.44015172 132.38038763 17.41888797 135.02135589 17.40478516 137.66235352 C17.38321814 141.47324599 17.33649423 145.28315595 17.28515625 149.09375 C17.28331329 150.84598625 17.28331329 150.84598625 17.28143311 152.63362122 C17.09792802 163.05962453 14.95069638 172.04478215 7.61328125 179.76171875 C0.70631259 185.66606293 -6.81961705 186.85037155 -15.6796875 186.75 C-24.47581243 185.94863814 -29.93419692 181.42841094 -35.6328125 174.9921875 C-40.84177588 167.06445801 -40.76168787 159.45919128 -40.72827148 150.25024414 C-40.73398185 148.82525601 -40.74094869 147.40027245 -40.74906921 145.97529602 C-40.76694205 142.12398209 -40.76584343 138.27289672 -40.76012683 134.42155385 C-40.7570265 131.1985135 -40.76313677 127.97551652 -40.76916558 124.75248235 C-40.78318984 117.14525394 -40.78166699 109.53813788 -40.77026367 101.9309082 C-40.75878375 94.09982986 -40.77286064 86.26909404 -40.79966015 78.43806082 C-40.82185667 71.69808745 -40.82844567 64.95822128 -40.82258373 58.21821398 C-40.81922247 54.19993312 -40.82157366 50.1818718 -40.83883476 46.1636219 C-40.85436521 42.38364019 -40.85028157 38.60416378 -40.83152962 34.82420158 C-40.82786054 33.44278938 -40.83090288 32.06133923 -40.84141541 30.67996216 C-40.91640761 20.00488329 -39.3661372 11.95742003 -32.0390625 3.921875 C-22.98780403 -4.01601682 -10.77061331 -4.46363465 0 0 Z M-26.76809597 12.92314911 C-31.30218054 19.36069532 -31.02440311 25.67006867 -30.95532227 33.32617188 C-30.96046788 34.72323004 -30.967754 36.12028171 -30.977005 37.51731873 C-30.99544602 41.29230197 -30.98262743 45.06657469 -30.96291471 48.84152794 C-30.94646601 52.80292895 -30.95534972 56.76428715 -30.96043396 60.72570801 C-30.96494801 67.37666096 -30.94912808 74.02733205 -30.92114258 80.67822266 C-30.88909363 88.35370686 -30.88910858 96.02868285 -30.90635735 103.70420313 C-30.92225361 111.10567719 -30.91546902 118.50696599 -30.89842033 125.90843201 C-30.89157049 129.05021636 -30.89256091 132.19185128 -30.89996529 135.33363342 C-30.90765991 139.03732891 -30.89539972 142.74045017 -30.86811638 146.44404793 C-30.85801131 148.44151154 -30.86738202 150.43904434 -30.87744141 152.43650818 C-30.79217668 160.49535761 -30.11460377 166.46534935 -24.31640625 172.51171875 C-18.6339483 176.28604506 -14.11598216 177.66677686 -7.32421875 176.41796875 C-1.45890258 174.75681277 1.58256884 171.83275665 4.64853477 166.6761322 C6.37043315 162.89093743 6.37876913 159.35313887 6.33520508 155.24804688 C6.35093063 153.92956253 6.35093063 153.92956253 6.36697388 152.58444214 C6.39556389 149.70566814 6.38945131 146.82810835 6.3828125 143.94921875 C6.39593726 141.94281519 6.41124387 139.93642483 6.42863464 137.93005371 C6.46840626 132.66932167 6.47867007 127.40893592 6.48266602 122.14807129 C6.49201219 116.77178495 6.52943508 111.39570082 6.56445312 106.01953125 C6.62894924 95.48568646 6.66225477 84.95199372 6.67578125 74.41796875 C7.04929718 74.93558525 7.42281311 75.45320175 7.80764771 75.9865036 C9.51608197 78.35378743 11.22483524 80.72084083 12.93359375 83.08789062 C13.52116455 83.90215515 14.10873535 84.71641968 14.71411133 85.55535889 C18.6692717 91.03360294 22.65111982 96.49054193 26.67578125 101.91796875 C31.21427977 108.0573934 35.71545616 114.22152807 40.17578125 120.41796875 C45.19276429 127.38536585 50.25220994 134.31982699 55.36401367 141.21801758 C58.39443175 145.30868196 61.39745739 149.41518556 64.35546875 153.55859375 C73.40279657 167.414213 73.40279657 167.414213 86.67578125 176.41796875 C92.24123616 176.90785728 97.08259077 177.18611416 102.17578125 174.73046875 C106.90240075 170.35834572 109.48693451 167.2031811 109.81000233 160.72766399 C109.81427581 159.69328607 109.81854929 158.65890814 109.82295227 157.59318542 C109.83368523 155.8078968 109.83368523 155.8078968 109.84463501 153.98654175 C109.84732391 152.6841153 109.85001282 151.38168884 109.8527832 150.03979492 C109.85905106 148.65156383 109.86569814 147.26333441 109.87269592 145.87510681 C109.89369758 141.32039551 109.90409354 136.76568401 109.9140625 132.2109375 C109.91811128 130.64101964 109.92222824 129.07110196 109.92641258 127.50118446 C109.94545441 120.12592937 109.95968847 112.75068424 109.96802455 105.37540931 C109.9777985 96.86919585 110.00412618 88.3632425 110.04452544 79.85712069 C110.07470271 73.27694041 110.08949488 66.69683464 110.09280556 60.11658651 C110.09515389 56.18881985 110.10408596 52.26133141 110.12926674 48.33363914 C110.15258146 44.63747535 110.15676735 40.9417723 110.14650536 37.24555397 C110.14577559 35.24898961 110.16484201 33.25244847 110.18457031 31.25598145 C110.13923829 23.43070062 109.51497641 18.61228946 104.11328125 12.7109375 C98.99626089 8.7758376 95.51815688 6.88608117 89.0546875 7.03515625 C83.72039661 7.89354789 79.93159508 11.09605945 76.30078125 14.91796875 C72.88821382 20.16807249 72.37389445 24.70732321 72.35693359 30.88012695 C72.34688797 31.71966415 72.33684235 32.55920135 72.32649231 33.42417908 C72.29569176 36.18902932 72.27863388 38.95378287 72.26171875 41.71875 C72.24300459 43.63975352 72.22343099 45.56074885 72.20303345 47.48173523 C72.15173251 52.5303158 72.11209582 57.57892301 72.07489014 62.62762451 C72.03483776 67.78241557 71.98375103 72.93709599 71.93359375 78.09179688 C71.83685857 88.20044308 71.75244601 98.3091518 71.67578125 108.41796875 C69.47712406 105.43934797 67.27949608 102.45996927 65.08203125 99.48046875 C64.46875977 98.64966797 63.85548828 97.81886719 63.22363281 96.96289062 C59.17452847 91.47149318 55.16047389 85.95625699 51.17578125 80.41796875 C44.41409611 71.03147288 37.55162733 61.72103022 30.67578125 52.41796875 C28.32051491 49.2312791 25.96656126 46.04362543 23.61328125 42.85546875 C23.03908447 42.07937256 22.4648877 41.30327637 21.87329102 40.50366211 C18.9148987 36.4956387 15.99117925 32.46749201 13.1171875 28.3984375 C12.53912354 27.58383057 11.96105957 26.76922363 11.36547852 25.92993164 C10.27431316 24.38848912 9.18967223 22.84239764 8.11303711 21.29077148 C3.41673429 14.66793715 -1.39922486 10.01408744 -9.32421875 7.41796875 C-16.13723141 6.66096734 -21.86371729 7.81054372 -26.76809597 12.92314911 Z " fill="#F7FBFF" transform="translate(139.32421875,163.58203125)"/>
<path d="M0 0 C1.30756256 -0.00004028 2.61512512 -0.00008057 3.96231079 -0.00012207 C6.71414369 0.00151936 9.46515035 0.01999032 12.21679688 0.05175781 C15.70518137 0.09135355 19.19248468 0.09580455 22.68105125 0.08829498 C26.05832689 0.08444671 29.43527708 0.10536423 32.8125 0.125 C34.66154434 0.12530212 34.66154434 0.12530212 36.54794312 0.12561035 C56.61092914 0.39506097 75.90339501 7.01681047 90.53125 20.95703125 C97.14454783 27.91026495 101.58557777 35.67541031 105.0390625 44.59375 C105.52052734 45.81771484 105.52052734 45.81771484 106.01171875 47.06640625 C111.20841455 62.70483501 108.45427979 79.85556223 101.6875 94.5234375 C92.85418288 110.36419054 77.7284455 121.83153042 60.42504883 126.95068359 C51.04455047 129.47889731 42.03427789 129.84925835 32.3515625 129.71875 C31.06572266 129.70972656 29.77988281 129.70070313 28.45507812 129.69140625 C25.31620518 129.6680689 22.17773774 129.63533033 19.0390625 129.59375 C19.0704834 130.68204102 19.1019043 131.77033203 19.13427734 132.89160156 C19.24404064 136.98406595 19.31217445 141.07640445 19.36865234 145.16992188 C19.3985647 146.93121316 19.43931116 148.6923589 19.49169922 150.453125 C19.83612742 162.33927465 19.46126001 172.03592 11.35742188 181.57275391 C6.01979832 186.96403061 -2.11760858 189.70205443 -9.5859375 190.09375 C-17.29150542 189.66795213 -23.6054471 185.80077007 -29.16796875 180.66015625 C-34.62702619 174.36856281 -37.0697271 167.08037353 -37.11483765 158.87854004 C-37.12343811 157.71240173 -37.13203857 156.54626343 -37.14089966 155.3447876 C-37.14515961 154.06891785 -37.14941956 152.7930481 -37.15380859 151.47851562 C-37.16171454 150.11810092 -37.16998379 148.75768829 -37.17858887 147.39727783 C-37.20476292 142.93153879 -37.22011684 138.46579062 -37.234375 134 C-37.23973751 132.45867406 -37.24511503 130.91734817 -37.25050735 129.37602234 C-37.27213372 122.95928 -37.29086609 116.54254012 -37.30212975 110.12577057 C-37.31834007 100.95326111 -37.35144915 91.78117717 -37.40853059 82.60882807 C-37.44735803 76.14746694 -37.46677778 69.68621897 -37.47205031 63.22474432 C-37.47568774 59.37219533 -37.48753487 55.52010064 -37.52015305 51.66767883 C-37.55045862 48.03626816 -37.55646689 44.40558125 -37.54476929 40.77407074 C-37.54444696 38.824958 -37.5687647 36.87588841 -37.59414673 34.92694092 C-37.52536217 25.09774421 -35.42997573 16.22703415 -28.8359375 8.65625 C-20.30328136 1.13629048 -11.00568239 -0.14590001 0 0 Z M-23.8984375 19.21875 C-26.51564335 23.50145049 -27.08681812 26.22254943 -27.10137939 31.13969421 C-27.10708954 32.29341019 -27.11279968 33.44712616 -27.11868286 34.63580322 C-27.11980072 35.90285095 -27.12091858 37.16989868 -27.12207031 38.4753418 C-27.12669942 39.82239416 -27.1317242 41.16944522 -27.13711548 42.51649475 C-27.15023544 46.17789401 -27.15668402 49.83927494 -27.16112614 53.50069404 C-27.16405843 55.78979536 -27.16816361 58.07889169 -27.17263031 60.36799049 C-27.18630621 67.53448516 -27.19597155 74.7009684 -27.1998322 81.86747521 C-27.20430875 90.13140128 -27.22183744 98.39516161 -27.2508328 106.65903729 C-27.27248066 113.05153003 -27.28253819 119.44397625 -27.28387332 125.83650523 C-27.28491943 129.65192431 -27.29078535 133.4671876 -27.30869293 137.28256798 C-27.32522673 140.87525094 -27.32730361 144.46766193 -27.31855392 148.06036949 C-27.31742189 149.9982845 -27.33109953 151.93619069 -27.3453064 153.87405396 C-27.31055927 161.1603004 -27.14740521 167.76407419 -22.27734375 173.6171875 C-21.40916016 174.28621094 -21.40916016 174.28621094 -20.5234375 174.96875 C-19.94722656 175.43023437 -19.37101562 175.89171875 -18.77734375 176.3671875 C-14.36370996 179.34757677 -11.3649439 180.12529161 -5.9609375 179.59375 C0.63463787 177.88165814 4.21476152 174.89416831 7.81939697 169.19827271 C9.94136561 164.66693573 9.78031772 160.35686243 9.625 155.43359375 C9.61226547 153.88787437 9.61226547 153.88787437 9.59927368 152.31092834 C9.56593833 149.04992937 9.49069464 145.79148955 9.4140625 142.53125 C9.38393731 140.30797866 9.35656601 138.08466819 9.33203125 135.86132812 C9.26621315 130.4379428 9.1660673 125.01602928 9.0390625 119.59375 C10.09182373 119.60946045 11.14458496 119.6251709 12.22924805 119.64135742 C16.19710402 119.69633827 20.16492758 119.73034349 24.13305664 119.75854492 C25.83884372 119.77347839 27.54459346 119.79383266 29.25024414 119.82006836 C50.08081796 120.13206814 68.27964771 116.26828785 84.0703125 101.72265625 C89.08798042 96.42989688 92.16897021 90.24714576 95.0390625 83.59375 C95.38195312 82.80355469 95.72484375 82.01335937 96.078125 81.19921875 C100.44731402 69.21457411 98.99918891 55.11107139 94.0390625 43.59375 C86.64710919 28.6394237 74.89591991 18.83780952 59.1980896 13.20147705 C49.88402542 10.57973657 40.19290508 10.26729483 30.58203125 10.22265625 C28.74032097 10.20911354 28.74032097 10.20911354 26.86140442 10.19529724 C24.28921918 10.18090143 21.71699822 10.17193489 19.14477539 10.16821289 C15.21894542 10.15622674 11.29464439 10.10685768 7.36914062 10.05664062 C4.85677842 10.04718426 2.34440668 10.03994547 -0.16796875 10.03515625 C-1.33270218 10.01562393 -2.49743561 9.99609161 -3.69746399 9.97596741 C-12.599614 10.02521548 -18.47388331 11.95860258 -23.8984375 19.21875 Z " fill="#F9FBFF" transform="translate(304.9609375,161.40625)"/>
<path d="M0 0 C5.548125 -0.0825 11.09625 -0.165 16.8125 -0.25 C19.40315308 -0.30462402 19.40315308 -0.30462402 22.04614258 -0.36035156 C40.79231908 -0.59233832 40.79231908 -0.59233832 47.9855957 5.75097656 C53.9897116 12.172471 54.54007521 18.78701661 54.3125 27.32421875 C53.76133653 33.80727912 51.7272309 37.23351385 47.25 41.8125 C40.82289898 46.13843338 35.01456139 47.45284726 27.34375 47.29296875 C26.64411133 47.28994751 25.94447266 47.28692627 25.22363281 47.28381348 C22.64893511 47.26830157 20.07445026 47.22641985 17.5 47.1875 C11.725 47.125625 5.95 47.06375 0 47 C0 31.49 0 15.98 0 0 Z " fill="#F9FBFF" transform="translate(314,203)"/>
<path d="M0 0 C3.815625 -0.061875 7.63125 -0.12375 11.5625 -0.1875 C13.34636108 -0.22846802 13.34636108 -0.22846802 15.16625977 -0.27026367 C22.13452049 -0.32481778 27.59127825 -0.18565611 32.91015625 4.78515625 C34.37670909 7.76557008 34.43367021 10.12473152 34.4375 13.4375 C34.45683594 14.54996094 34.47617187 15.66242188 34.49609375 16.80859375 C33.88707604 20.72644784 32.8728175 22.28970462 30 25 C24.36331935 27.9694816 17.82778103 27.21924691 11.625 27.125 C5.870625 27.063125 5.870625 27.063125 0 27 C0 18.09 0 9.18 0 0 Z " fill="#0173FF" transform="translate(324,213)"/>
</svg>
